<?xml version="1.0" encoding="utf-8"?>
<!-- Generator: Adobe Illustrator 16.0.0, SVG Export Plug-In . SVG Version: 6.00 Build 0)  -->
<!DOCTYPE svg PUBLIC "-//W3C//DTD SVG 1.1//EN" "http://www.w3.org/Graphics/SVG/1.1/DTD/svg11.dtd">
<svg version="1.1" id="Calque_1" xmlns="http://www.w3.org/2000/svg" xmlns:xlink="http://www.w3.org/1999/xlink" x="0px" y="0px"
	 width="216px" height="64px" viewBox="0 0 216 64" enable-background="new 0 0 216 64" xml:space="preserve">
<g>
	<path fill-rule="evenodd" clip-rule="evenodd" fill="#7E8690" d="M94.217,41.006c-0.233-0.283-0.247-0.57-0.097-0.862
		c0.136-0.267,0.4-0.324,0.67-0.386c1.422-0.327,1.634-0.576,1.707-2.035c0.032-0.638,0.044-1.276,0.045-1.914
		c0.003-4.906,0.007-9.813-0.004-14.72c-0.002-0.77-0.064-1.542-0.135-2.311c-0.079-0.831-0.493-1.269-1.298-1.438
		c-0.164-0.034-0.335-0.03-0.5-0.061c-0.494-0.092-0.745-0.661-0.47-1.079c0.049-0.075,0.155-0.128,0.246-0.157
		c0.092-0.03,0.2-0.026,0.299-0.02c2.923,0.192,5.844,0.063,8.766-0.048c1.316-0.049,2.622,0.072,3.899,0.391
		c1.963,0.491,3.36,1.63,3.997,3.603c0.749,2.321,0.016,4.755-1.936,6.212c-0.614,0.458-1.33,0.777-2,1.159
		c-0.193,0.109-0.386,0.217-0.717,0.402c0.538,0.136,0.915,0.235,1.294,0.326c1.303,0.309,2.453,0.907,3.424,1.832
		c1.494,1.422,2.111,3.168,1.844,5.204c-0.377,2.854-2.239,4.856-5.169,5.648c-0.855,0.231-1.724,0.258-2.599,0.252
		c-2.991-0.018-5.982-0.038-8.973-0.049C95.742,40.954,94.974,40.989,94.217,41.006z M100.296,28.792
		c-0.024,0.16-0.061,0.29-0.061,0.42c-0.003,2.854-0.003,5.708-0.003,8.564c0,0.066,0.003,0.135,0.009,0.201
		c0.081,1.052,0.5,1.502,1.543,1.645c1.176,0.163,2.355,0.125,3.509-0.117c1.781-0.373,3.001-1.449,3.607-3.171
		c0.482-1.368,0.511-2.771,0.133-4.167c-0.335-1.229-1.093-2.139-2.235-2.717c-0.604-0.307-1.244-0.491-1.91-0.608
		c-1.434-0.252-2.877-0.19-4.319-0.158C100.508,28.684,100.447,28.729,100.296,28.792z M100.229,27.239
		c0.58,0.028,1.042,0.075,1.502,0.068c0.97-0.014,1.944,0.012,2.897-0.246c1.493-0.402,2.437-1.347,2.855-2.825
		c0.307-1.083,0.338-2.19,0.163-3.291c-0.295-1.845-1.337-3.028-3.19-3.446c-0.066-0.015-0.129-0.04-0.194-0.054
		c-0.864-0.181-1.738-0.182-2.602-0.048c-0.926,0.144-1.332,0.622-1.416,1.557c-0.019,0.201-0.014,0.403-0.014,0.604
		c0,2.248,0,4.495,0,6.742C100.229,26.565,100.229,26.831,100.229,27.239z"/>
	<path fill-rule="evenodd" clip-rule="evenodd" fill="#7E8690" d="M164.309,48.364c0-0.391,0-0.681,0-1.024
		c0.195-0.045,0.382-0.093,0.57-0.133c0.263-0.056,0.526-0.099,0.788-0.161c0.557-0.134,0.848-0.514,0.944-1.057
		c0.029-0.164,0.038-0.335,0.039-0.502c0.007-1.949,0.012-3.897,0.014-5.846c0-0.16-0.031-0.319-0.045-0.459
		c-0.296-0.097-0.409,0.112-0.552,0.232c-0.628,0.512-1.292,0.969-2.03,1.302c-1.989,0.896-3.853,0.694-5.579-0.66
		c-1.209-0.946-1.997-2.177-2.391-3.645c-0.635-2.376-0.738-4.773-0.113-7.173c0.316-1.216,0.837-2.34,1.636-3.319
		c1.552-1.901,3.588-2.633,5.99-2.433c1.22,0.102,2.372,0.427,3.421,1.094c0.594,0.377,0.705,0.347,1.248-0.095
		c0.209-0.169,0.393-0.375,0.621-0.512c0.191-0.116,0.426-0.19,0.649-0.219c0.322-0.042,0.518,0.134,0.537,0.452
		c0.021,0.301,0.013,0.604,0.013,0.907c0,6.554,0,13.108,0.001,19.662c0,0.335-0.01,0.671,0.012,1.007
		c0.054,0.831,0.304,1.139,1.086,1.362c0.16,0.047,0.333,0.055,0.488,0.115c0.273,0.104,0.42,0.315,0.447,0.611
		c0.03,0.326-0.113,0.536-0.443,0.538c-0.841,0-1.683,0.017-2.518-0.056c-0.842-0.07-1.674-0.088-2.513,0.012
		C165.899,48.453,165.165,48.488,164.309,48.364z M166.682,31.805c0-1.61-0.02-3.222,0.011-4.833
		c0.009-0.568-0.214-0.938-0.651-1.267c-2.081-1.565-4.709-0.768-5.815,1.017c-0.263,0.424-0.485,0.885-0.648,1.356
		c-0.897,2.605-0.825,5.207,0.107,7.789c0.274,0.768,0.702,1.447,1.299,2.012c1.014,0.956,2.196,1.274,3.524,0.822
		c0.498-0.169,0.958-0.473,1.415-0.748c0.564-0.337,0.791-0.835,0.773-1.518C166.652,34.893,166.682,33.35,166.682,31.805z"/>
	<path fill-rule="evenodd" clip-rule="evenodd" fill="#5CBCE2" d="M30.125,40.002c0.015,0.164,0.042,0.293,0.034,0.423
		c-0.008,0.16-0.045,0.318-0.078,0.525c-2.819,0.206-5.6-0.15-8.36,0.157c-0.225-0.391-0.206-0.736-0.055-1.126
		c0.372-0.054,0.736-0.084,1.091-0.16c0.809-0.172,1.034-0.49,0.852-1.279c-0.197-0.852-0.437-1.693-0.675-2.533
		c-0.312-1.1-0.633-2.196-0.963-3.289c-0.212-0.698-0.367-0.822-1.063-0.826c-1.85-0.009-3.7,0.005-5.549-0.006
		c-0.542-0.004-0.893,0.212-1.07,0.728c-0.575,1.686-1.16,3.368-1.73,5.054c-0.097,0.285-0.166,0.585-0.198,0.884
		c-0.07,0.646,0.198,1.018,0.833,1.178c0.194,0.051,0.4,0.042,0.6,0.073c0.358,0.057,0.475,0.168,0.496,0.514
		c0.011,0.193-0.031,0.39-0.052,0.62c-0.192,0.03-0.354,0.077-0.513,0.076c-0.37-0.001-0.739-0.031-1.109-0.04
		c-1.512-0.031-3.025-0.119-4.53,0.132c-0.365,0.062-0.562-0.188-0.478-0.556c0.072-0.313,0.221-0.591,0.539-0.677
		c1.308-0.357,1.974-1.357,2.452-2.496c0.649-1.55,1.246-3.121,1.833-4.694c1.963-5.258,3.911-10.521,5.867-15.782
		c0.152-0.408,0.319-0.811,0.486-1.238c0.174-0.035,0.333-0.09,0.495-0.096c1.044-0.045,1.052-0.027,1.392,1.005
		c1.85,5.618,3.704,11.233,5.556,16.849c0.463,1.404,0.918,2.813,1.388,4.215c0.126,0.381,0.263,0.764,0.441,1.124
		c0.283,0.568,0.728,0.954,1.382,1.062C29.665,39.86,29.884,39.939,30.125,40.002z M18.534,21.295
		c-0.073-0.011-0.146-0.022-0.219-0.034c-1.026,2.939-2.054,5.879-3.074,8.82c-0.03,0.084,0.012,0.193,0.023,0.324
		c0.667,0.135,1.335,0.053,1.998,0.068c0.637,0.014,1.274,0.019,1.912-0.001c0.655-0.022,1.322,0.099,2.017-0.109
		c-0.049-0.265-0.068-0.499-0.135-0.716C20.202,26.867,19.42,24.065,18.534,21.295z"/>
	<path fill-rule="evenodd" clip-rule="evenodd" fill="#7E8690" d="M135.056,25.792c-0.177-0.453-0.161-0.809-0.046-1.213
		c0.181-0.045,0.368-0.127,0.558-0.134c1.092-0.04,2.119-0.308,3.107-0.772c0.295-0.14,0.639-0.206,0.967-0.241
		c0.417-0.046,0.637,0.137,0.689,0.553c0.046,0.365,0.033,0.738,0.05,1.106c0.01,0.191,0.03,0.382,0.051,0.631
		c0.406-0.083,0.637-0.34,0.899-0.527c0.995-0.711,2.051-1.292,3.272-1.49c1.002-0.164,2.014-0.213,2.992,0.123
		c1.197,0.412,2.141,1.125,2.548,2.384c0.102,0.315,0.153,0.655,0.17,0.987c0.034,0.603,0.031,1.208,0.032,1.814
		c0.004,2.824-0.003,5.648,0.007,8.471c0.002,0.434,0.043,0.87,0.104,1.304c0.079,0.573,0.438,0.884,1.006,0.958
		c0.231,0.028,0.465,0.042,0.745,0.066c0.071,0.145,0.18,0.281,0.206,0.432c0.099,0.568-0.03,0.737-0.619,0.735
		c-0.839-0.002-1.679-0.056-2.518-0.067c-0.638-0.011-1.274-0.004-1.911,0.015c-0.766,0.022-1.531,0.163-2.291,0.007
		c-0.245-0.323-0.208-0.645-0.143-0.95c0.25-0.293,0.584-0.206,0.869-0.272c0.597-0.139,0.926-0.512,1.018-1.105
		c0.026-0.167,0.04-0.336,0.04-0.503c0.008-3.194,0.014-6.386,0.023-9.58c0.001-0.587-0.17-1.124-0.412-1.647
		c-0.382-0.829-1.071-1.216-1.94-1.191c-1.437,0.041-2.664,0.64-3.707,1.612c-0.132,0.124-0.194,0.342-0.242,0.529
		c-0.04,0.158-0.018,0.333-0.017,0.501c0.006,3.16,0.012,6.32,0.021,9.479c0,0.269,0.008,0.539,0.044,0.805
		c0.074,0.555,0.368,0.927,0.937,1.045c0.098,0.021,0.197,0.04,0.296,0.061c0.698,0.148,0.765,0.235,0.673,0.936
		c-0.013,0.093-0.085,0.178-0.122,0.251c-0.08,0.03-0.144,0.073-0.203,0.069c-2.315-0.171-4.635-0.038-6.952-0.008
		c-0.061,0.001-0.122-0.043-0.23-0.083c-0.162-0.278-0.122-0.603-0.09-0.989c0.393-0.107,0.771-0.22,1.153-0.312
		c0.563-0.136,0.875-0.478,0.913-1.055c0.031-0.469,0.069-0.939,0.07-1.409c0.007-3.058,0.005-6.116,0.001-9.174
		c0-0.335-0.004-0.675-0.053-1.005c-0.105-0.708-0.485-1.041-1.215-1.102C135.575,25.816,135.343,25.809,135.056,25.792z"/>
	<path fill-rule="evenodd" clip-rule="evenodd" fill="#7E8690" d="M179.573,23.905c0,0.533,0.001,1.035,0,1.538
		c-0.004,3.497-0.008,6.993-0.014,10.489c-0.002,0.541,0.026,1.075,0.212,1.591c0.344,0.944,1.049,1.48,2.059,1.478
		c0.43-0.002,0.871-0.086,1.28-0.216c0.913-0.292,1.648-0.894,2.376-1.492c0.243-0.198,0.378-0.475,0.403-0.789
		c0.025-0.301,0.033-0.603,0.032-0.905c-0.01-2.42-0.022-4.841-0.043-7.261c-0.004-0.435-0.009-0.879-0.091-1.304
		c-0.118-0.611-0.465-1.04-1.146-1.083c-0.068-0.003-0.136-0.008-0.201-0.02c-0.688-0.13-0.756-0.251-0.575-1.113
		c0.197-0.038,0.419-0.107,0.642-0.116c1.154-0.047,2.267-0.256,3.318-0.753c0.429-0.202,0.881-0.314,1.34-0.111
		c0.214,0.372,0.134,0.75,0.135,1.111c0.006,4.068,0.001,8.136,0.007,12.205c0.003,0.569,0.04,1.142,0.086,1.709
		c0.042,0.537,0.35,0.854,0.877,0.96c0.358,0.072,0.714,0.146,1.125,0.229c0.016,0.282,0.028,0.535,0.042,0.747
		c-0.111,0.086-0.159,0.141-0.219,0.164c-0.093,0.036-0.193,0.072-0.291,0.074c-1.544,0.017-3.088,0.03-4.631,0.037
		c-0.058,0-0.113-0.063-0.223-0.128c-0.133-0.649-0.005-1.357-0.101-2.036c-0.203-0.12-0.33,0.012-0.459,0.106
		c-0.378,0.28-0.748,0.571-1.127,0.852c-1.324,0.977-2.814,1.386-4.453,1.297c-1.777-0.095-3.209-1.247-3.604-2.986
		c-0.126-0.551-0.168-1.129-0.172-1.696c-0.018-2.757-0.009-5.514-0.009-8.271c0-0.268,0.006-0.538-0.004-0.807
		c-0.038-0.945-0.214-1.164-1.115-1.41c-0.258-0.071-0.517-0.144-0.773-0.22c-0.029-0.008-0.05-0.043-0.135-0.125
		c-0.022-0.19-0.053-0.446-0.082-0.691c0.118-0.088,0.188-0.182,0.275-0.2c0.294-0.062,0.594-0.101,0.893-0.142
		c1.001-0.134,1.995-0.291,2.913-0.752C178.562,23.639,179.02,23.607,179.573,23.905z"/>
	<path fill-rule="evenodd" clip-rule="evenodd" fill="#7E8690" d="M126.414,30.447c0.071-0.111,0.104-0.138,0.106-0.168
		c0.127-1.202,0.193-2.403-0.05-3.598c-0.039-0.196-0.132-0.38-0.189-0.573c-0.244-0.804-0.828-1.181-1.621-1.316
		c-0.76-0.129-1.473-0.032-2.131,0.383c-0.542,0.345-0.878,0.821-0.919,1.479c-0.018,0.269-0.01,0.541-0.058,0.804
		c-0.133,0.747-0.689,1.252-1.521,1.413c-0.73,0.141-1.592-0.195-1.94-0.787c-0.25-0.421-0.316-0.873-0.145-1.354
		c0.33-0.927,0.928-1.626,1.769-2.123c0.912-0.54,1.922-0.814,2.956-0.953c1.478-0.198,2.94-0.113,4.389,0.323
		c2.098,0.633,2.882,2.204,2.879,3.786c-0.003,2.219,0.016,4.438,0.021,6.658c0.003,1.075-0.008,2.151,0.006,3.227
		c0.005,0.333,0.041,0.672,0.119,0.995c0.095,0.391,0.386,0.534,0.771,0.435c0.128-0.035,0.253-0.089,0.379-0.136
		c0.729-0.272,0.763-0.262,1.205,0.411c0.032,0.051,0.029,0.127,0.043,0.19c-0.88,1.077-2.62,1.778-3.932,1.589
		c-0.713-0.104-1.259-0.451-1.595-1.098c-0.138-0.265-0.26-0.537-0.4-0.832c-0.46,0.12-0.779,0.434-1.138,0.669
		c-0.882,0.576-1.809,1.029-2.857,1.202c-0.166,0.026-0.332,0.051-0.499,0.069c-3.618,0.396-5.928-3.274-4.743-6.32
		c0.496-1.279,1.333-2.242,2.527-2.9c0.74-0.409,1.538-0.684,2.367-0.835c1.056-0.192,2.122-0.334,3.183-0.496
		C125.758,30.537,126.118,30.488,126.414,30.447z M126.561,31.713c-1.46-0.094-3.451,0.405-4.511,1.098
		c-1.144,0.75-1.642,1.846-1.586,3.171c0.085,2.028,1.877,3.317,3.866,2.847c0.596-0.143,1.127-0.418,1.657-0.705
		c0.468-0.254,0.649-0.606,0.641-1.14c-0.026-1.575-0.009-3.15-0.013-4.726C126.615,32.095,126.583,31.932,126.561,31.713z"/>
	<path fill-rule="evenodd" clip-rule="evenodd" fill="#5CBCE2" d="M65.987,31.699c-0.19,0.953-0.012,1.776,0.151,2.594
		c0.24,1.203,0.723,2.307,1.497,3.268c1.082,1.343,2.747,1.866,4.332,1.375c0.555-0.171,1.048-0.458,1.464-0.859
		c0.361-0.35,0.704-0.72,1.037-1.098c0.185-0.21,0.379-0.381,0.665-0.41c0.316-0.035,0.601,0.034,0.862,0.332
		c-0.046,0.153-0.074,0.351-0.16,0.518c-1.186,2.313-3.081,3.575-5.667,3.789c-1.011,0.082-2.011,0.032-2.995-0.257
		c-1.976-0.583-3.309-1.872-4.067-3.753c-0.479-1.192-0.723-2.447-0.717-3.739c0.005-0.874,0.03-1.747,0.063-2.62
		c0.059-1.542,0.521-2.966,1.302-4.293c0.999-1.695,2.45-2.722,4.407-3.028c1.252-0.196,2.479-0.118,3.677,0.29
		c1.96,0.667,3.224,1.998,3.774,3.997c0.288,1.043,0.396,2.112,0.4,3.189c0.001,0.45-0.143,0.593-0.602,0.626
		c-0.268,0.019-0.538,0.009-0.806,0.009c-2.622-0.003-5.242-0.009-7.863-0.007C66.514,31.621,66.286,31.667,65.987,31.699z
		 M72.516,30.172c-0.05-1.121-0.089-2.19-0.421-3.218c-0.121-0.377-0.31-0.741-0.513-1.084c-0.303-0.511-0.768-0.861-1.34-0.989
		c-1.2-0.27-2.279-0.045-3.057,0.984c-0.279,0.368-0.49,0.798-0.673,1.225c-0.345,0.807-0.478,1.67-0.578,2.537
		c-0.021,0.186,0.015,0.38,0.024,0.564c0.153,0.049,0.246,0.106,0.339,0.106c1.942,0.004,3.885,0.003,5.827-0.002
		C72.217,30.295,72.309,30.239,72.516,30.172z"/>
	<path fill-rule="evenodd" clip-rule="evenodd" fill="#7E8690" d="M198.371,31.625c-0.064,0.249-0.127,0.376-0.125,0.502
		c0.024,1.147,0.163,2.279,0.56,3.364c0.337,0.928,0.858,1.739,1.562,2.441c1.452,1.45,3.658,1.649,5.38,0.205
		c0.434-0.363,0.771-0.838,1.151-1.264c0.108-0.12,0.212-0.246,0.33-0.383c0.431,0.038,0.796,0.164,1.183,0.444
		c-0.13,0.282-0.232,0.558-0.379,0.81c-1.22,2.106-3.052,3.244-5.472,3.452c-1.472,0.126-2.879-0.056-4.205-0.756
		c-0.946-0.501-1.701-1.192-2.248-2.11c-0.77-1.29-1.242-2.688-1.38-4.178c-0.165-1.751-0.036-3.493,0.383-5.205
		c0.252-1.022,0.67-1.97,1.291-2.825c1.055-1.456,2.428-2.387,4.241-2.629c1.834-0.244,3.543,0.038,5.099,1.092
		c0.982,0.664,1.661,1.554,2.062,2.664c0.415,1.153,0.521,2.359,0.568,3.569c0.026,0.642-0.172,0.812-0.855,0.813
		c-2.656,0.002-5.311-0.003-7.967-0.007C199.183,31.625,198.815,31.625,198.371,31.625z M204.744,30.196
		c0.138-1.015,0.015-2.316-0.329-3.307c-0.121-0.344-0.281-0.68-0.46-0.999c-0.22-0.388-0.556-0.674-0.968-0.843
		c-1.224-0.5-2.601-0.354-3.493,0.895c-0.308,0.429-0.569,0.92-0.72,1.422c-0.221,0.732-0.331,1.499-0.468,2.255
		c-0.033,0.182,0.015,0.378,0.026,0.553C199.153,30.327,203.718,30.344,204.744,30.196z"/>
	<path fill-rule="evenodd" clip-rule="evenodd" fill="#5CBCE2" d="M90.302,24.184c0.008,0.432,0.021,0.831,0.021,1.229
		c0,0.84,0.004,1.681-0.013,2.521c-0.006,0.353-0.149,0.479-0.496,0.5c-0.2,0.012-0.404,0.011-0.604-0.004
		c-0.291-0.021-0.414-0.136-0.47-0.428c-0.07-0.362-0.112-0.731-0.199-1.088c-0.223-0.912-0.79-1.531-1.648-1.905
		c-1.083-0.471-2.149-0.471-3.21,0.058c-1.677,0.833-1.601,2.908-0.353,3.838c0.321,0.238,0.684,0.428,1.045,0.601
		c1,0.479,2.017,0.92,3.012,1.409c0.601,0.295,1.195,0.617,1.756,0.983c2.912,1.901,2.95,6.938-0.711,8.666
		c-1.626,0.767-3.353,0.937-5.121,0.744c-1.006-0.109-1.972-0.392-2.915-0.763c-0.677-0.268-1.003-0.705-0.978-1.458
		c0.038-1.107,0.006-2.218,0.012-3.327c0.001-0.16,0.045-0.322,0.072-0.507c0.449-0.19,0.864-0.157,1.252-0.051
		c0.287,0.308,0.22,0.663,0.288,0.986c0.103,0.49,0.175,0.998,0.364,1.457c0.96,2.331,3.736,3.098,5.812,1.679
		c1.3-0.89,1.272-2.954,0.374-3.834c-0.51-0.499-1.101-0.88-1.737-1.191c-0.935-0.459-1.88-0.896-2.811-1.362
		c-0.541-0.27-1.076-0.555-1.586-0.877c-1.155-0.728-1.757-1.832-1.971-3.146c-0.224-1.371,0.699-3.573,1.802-4.406
		c0.631-0.476,1.361-0.723,2.124-0.878c0.894-0.181,1.802-0.281,2.708-0.172c1.266,0.151,2.524,0.364,3.785,0.557
		C90,24.026,90.087,24.088,90.302,24.184z"/>
	<path fill-rule="evenodd" clip-rule="evenodd" fill="#5CBCE2" d="M59.205,36.315c0.384,0.181,0.71,0.334,1.083,0.51
		c-0.101,0.236-0.158,0.425-0.254,0.591c-0.523,0.909-1.161,1.724-1.946,2.427c-2.383,2.14-6.82,2.206-9.247-0.441
		c-0.672-0.734-1.135-1.582-1.437-2.518c-0.941-2.931-0.79-5.832,0.322-8.684c0.23-0.59,0.548-1.153,0.883-1.694
		c1.04-1.675,2.594-2.572,4.508-2.917c1.43-0.259,2.811-0.108,4.157,0.408c0.764,0.292,1.433,0.732,1.992,1.336
		c0.4,0.434,0.625,0.95,0.742,1.52c0.077,0.381-0.004,0.738-0.214,1.06c-0.443,0.683-1.647,1.086-2.428,0.823
		c-0.482-0.162-0.808-0.484-0.934-0.973c-0.083-0.324-0.145-0.659-0.166-0.992c-0.128-2.082-2.088-2.372-3.319-1.746
		c-0.488,0.248-0.911,0.587-1.209,1.042c-0.274,0.418-0.541,0.858-0.717,1.324c-0.443,1.169-0.698,2.381-0.685,3.644
		c0.013,1.314,0.086,2.619,0.437,3.895c0.214,0.783,0.498,1.538,0.951,2.213c0.948,1.413,2.265,2.046,3.971,1.835
		c0.872-0.107,1.611-0.469,2.198-1.117C58.317,37.388,58.716,36.891,59.205,36.315z"/>
	<path fill-rule="evenodd" clip-rule="evenodd" fill="#5CBCE2" d="M44.645,36.846c-1.406,3.673-5.434,5.504-9.074,4.118
		c-1.843-0.702-3.072-2.008-3.713-3.862c-0.153-0.443-0.27-0.904-0.34-1.367c-0.298-2.005-0.397-4.011,0.08-6.008
		c0.268-1.121,0.698-2.177,1.336-3.136c1.588-2.384,3.873-3.336,6.669-3.111c1.292,0.104,2.487,0.555,3.526,1.361
		c0.459,0.356,0.836,0.778,1.075,1.312c0.353,0.793,0.254,1.553-0.263,2.057c-0.591,0.574-1.643,0.771-2.343,0.435
		c-0.348-0.167-0.609-0.425-0.732-0.792c-0.085-0.252-0.127-0.52-0.178-0.782c-0.064-0.328-0.084-0.669-0.183-0.987
		c-0.317-1.022-1.119-1.512-2.167-1.359c-0.915,0.135-1.626,0.599-2.168,1.339c-0.545,0.744-0.908,1.578-1.097,2.47
		c-0.415,1.96-0.481,3.938-0.018,5.897c0.176,0.744,0.495,1.46,0.794,2.168c0.142,0.336,0.369,0.642,0.596,0.931
		c1.606,2.03,4.265,1.843,5.72,0.497c0.368-0.34,0.68-0.741,1.006-1.124c0.184-0.215,0.388-0.369,0.681-0.373
		C44.161,36.524,44.463,36.535,44.645,36.846z"/>
	<path fill-rule="evenodd" clip-rule="evenodd" fill="#5CBCE2" d="M70.767,21.155c-1.121,0.347-2.079,0.115-2.949-0.699
		c-1.08-1.008-2.216-1.957-3.325-2.933c-0.202-0.178-0.41-0.352-0.582-0.555c-0.102-0.121-0.165-0.289-0.205-0.446
		c-0.063-0.253,0.105-0.497,0.357-0.499c0.907-0.012,1.814-0.014,2.721,0c0.313,0.004,0.586,0.144,0.774,0.409
		c1.071,1.505,2.14,3.011,3.205,4.52C70.793,20.994,70.767,21.077,70.767,21.155z"/>
	<path fill-rule="evenodd" clip-rule="evenodd" fill="#5CBCE2" d="M22.496,46.751c-0.059,0.604-0.084,0.966-0.139,1.324
		c-0.01,0.063-0.147,0.147-0.222,0.145c-0.071-0.003-0.174-0.097-0.198-0.171c-0.04-0.123-0.036-0.263-0.036-0.396
		c-0.004-0.7-0.002-1.399-0.002-2.046c0.276-0.219,0.448-0.131,0.568,0.053c0.308,0.476,0.599,0.961,0.941,1.515
		c0.155-0.188,0.281-0.319,0.381-0.47c0.148-0.221,0.269-0.462,0.416-0.685c0.143-0.215,0.23-0.591,0.528-0.53
		c0.402,0.082,0.229,0.495,0.236,0.763c0.018,0.6-0.008,1.201-0.033,1.802c-0.002,0.057-0.139,0.15-0.208,0.147
		c-0.068-0.005-0.18-0.104-0.188-0.173c-0.042-0.384-0.058-0.768-0.088-1.236c-0.542,0.296-0.532,0.951-1.069,1.154
		C23.131,47.607,22.882,47.271,22.496,46.751z"/>
	<path fill-rule="evenodd" clip-rule="evenodd" fill="#5CBCE2" d="M35.666,48.256c-0.031-0.99-0.05-1.848,0.014-2.749
		c0.554-0.113,1.052-0.116,1.541-0.023c0.752,0.141,1.214,0.706,1.2,1.4c-0.016,0.751-0.531,1.296-1.34,1.364
		C36.65,48.286,36.215,48.256,35.666,48.256z M36.268,47.771c0.653,0.087,1.174,0.074,1.485-0.492
		c0.179-0.327,0.128-0.749-0.13-1.018c-0.395-0.407-0.865-0.368-1.41-0.243C36.196,46.623,36.125,47.173,36.268,47.771z"/>
	<path fill-rule="evenodd" clip-rule="evenodd" fill="#5CBCE2" d="M80.485,48.313c-0.019-1.055-0.042-1.914,0.023-2.791
		c0.491-0.143,0.927-0.123,1.349-0.062c0.941,0.13,1.245,0.851,0.73,1.678c-0.05,0.081-0.111,0.158-0.192,0.271
		c0.119,0.229,0.24,0.462,0.39,0.75c-0.126,0.029-0.282,0.115-0.343,0.071c-0.183-0.131-0.35-0.298-0.483-0.48
		c-0.21-0.284-0.464-0.354-0.839-0.222c-0.034,0.164-0.036,0.377-0.126,0.539C80.937,48.169,80.745,48.194,80.485,48.313z
		 M81.085,47.036c0.373-0.047,0.641-0.053,0.891-0.123c0.209-0.058,0.304-0.25,0.296-0.473c-0.007-0.227-0.125-0.392-0.343-0.438
		c-0.193-0.042-0.396-0.051-0.595-0.045c-0.085,0.004-0.168,0.084-0.249,0.128C81.085,46.363,81.085,46.623,81.085,47.036z"/>
	<path fill-rule="evenodd" clip-rule="evenodd" fill="#7E8690" d="M103.693,45.421c0.863,0.014,1.472,0.615,1.468,1.45
		c-0.004,0.877-0.65,1.456-1.586,1.421c-0.857-0.033-1.468-0.668-1.429-1.487C102.187,45.981,102.829,45.406,103.693,45.421z
		 M104.628,46.86c-0.001-0.517-0.43-0.951-0.948-0.961c-0.515-0.011-0.965,0.406-0.992,0.922c-0.03,0.549,0.442,1.023,1.001,1.006
		C104.21,47.813,104.63,47.381,104.628,46.86z"/>
	<path fill-rule="evenodd" clip-rule="evenodd" fill="#7E8690" d="M124.166,46.96c-0.611,0.069-1.001,0.111-1.461,0.162
		c-0.013,0.198-0.027,0.383-0.045,0.642c0.33,0.022,0.624,0.032,0.916,0.063c0.234,0.023,0.556-0.09,0.61,0.348
		c-0.672,0.164-1.327,0.118-1.995,0.033c-0.201-0.437-0.1-0.877-0.116-1.303c-0.014-0.433-0.002-0.865-0.002-1.271
		c0.68-0.245,1.104-0.261,1.998-0.091c0.089,0.207-0.012,0.329-0.203,0.351c-0.362,0.041-0.729,0.048-1.08,0.068
		c-0.172,0.552-0.144,0.624,0.242,0.656c0.231,0.021,0.469,0.013,0.701,0.042C123.81,46.669,123.879,46.757,124.166,46.96z"/>
	<path fill-rule="evenodd" clip-rule="evenodd" fill="#7E8690" d="M96.042,45.443c0.459,0,0.796-0.024,1.129,0.003
		c1.084,0.094,1.43,0.823,0.838,1.737c-0.052,0.08-0.099,0.165-0.15,0.249c0.126,0.247,0.245,0.478,0.42,0.821
		c-0.253-0.051-0.432-0.039-0.538-0.119c-0.154-0.12-0.246-0.316-0.383-0.464c-0.347-0.373-0.694-0.286-0.868,0.21
		c-0.033,0.095-0.05,0.198-0.103,0.279c-0.027,0.042-0.119,0.062-0.178,0.055c-0.057-0.005-0.113-0.05-0.162-0.087
		c-0.023-0.019-0.038-0.061-0.039-0.092c-0.011-0.571-0.025-1.142-0.024-1.712C95.984,46.063,96.017,45.803,96.042,45.443z
		 M96.554,46.975c0.393,0.032,0.689,0.099,0.96-0.084c0.173-0.116,0.302-0.292,0.232-0.502c-0.046-0.141-0.161-0.301-0.289-0.363
		c-0.271-0.132-0.569-0.158-0.904,0.036C96.554,46.319,96.554,46.602,96.554,46.975z"/>
	<path fill-rule="evenodd" clip-rule="evenodd" fill="#7E8690" d="M116.435,47.516c-0.051,0.201-0.061,0.413-0.16,0.566
		c-0.062,0.096-0.261,0.101-0.443,0.161c-0.078-0.939-0.077-1.8-0.004-2.716c0.543-0.147,1.065-0.143,1.581-0.001
		c0.474,0.129,0.749,0.515,0.736,0.957c-0.013,0.444-0.316,0.821-0.781,0.922C117.074,47.468,116.774,47.478,116.435,47.516z
		 M116.399,47.034c0.353-0.045,0.618-0.049,0.863-0.121c0.201-0.059,0.313-0.244,0.306-0.469c-0.006-0.226-0.129-0.396-0.341-0.438
		c-0.25-0.05-0.511-0.043-0.828-0.065C116.399,46.304,116.399,46.591,116.399,47.034z"/>
	<path fill-rule="evenodd" clip-rule="evenodd" fill="#5CBCE2" d="M51.167,45.899c-0.121,0.082-0.223,0.21-0.316,0.204
		c-0.16-0.011-0.31-0.123-0.472-0.159c-0.605-0.129-1.126,0.186-1.225,0.724c-0.112,0.619,0.254,1.076,0.936,1.153
		c0.126,0.016,0.259-0.03,0.284-0.034c0.475-0.217,0.1-0.808,0.588-0.918c0.03-0.007,0.064,0.012,0.103,0.021
		c0.018,0.019,0.053,0.038,0.058,0.063c0.073,0.387,0.245,0.843-0.142,1.105c-0.532,0.363-1.151,0.343-1.715,0.032
		c-0.778-0.428-0.939-1.493-0.353-2.164c0.278-0.317,0.633-0.485,1.054-0.506C50.412,45.399,50.83,45.45,51.167,45.899z"/>
	<path fill-rule="evenodd" clip-rule="evenodd" fill="#5CBCE2" d="M44.108,47.656c-0.467,0-0.832,0-1.134,0
		c-0.351,0.118-0.304,0.602-0.695,0.576c-0.058-0.004-0.113-0.054-0.209-0.103c0.279-0.881,0.702-1.705,1.109-2.533
		c0.102-0.208,0.465-0.198,0.605-0.01c0.039,0.053,0.079,0.107,0.106,0.168c0.355,0.785,0.708,1.572,1.053,2.344
		c-0.229,0.21-0.404,0.182-0.551-0.007C44.292,47.965,44.214,47.82,44.108,47.656z M43.906,47.201c-0.1-0.43-0.14-0.749-0.53-0.931
		c-0.105,0.294-0.199,0.56-0.316,0.89C43.36,47.175,43.578,47.187,43.906,47.201z"/>
	<path fill-rule="evenodd" clip-rule="evenodd" fill="#5CBCE2" d="M31.787,48.116c-0.588,0.374-0.589-0.263-0.911-0.451
		c-0.34,0-0.738,0-1.1,0c-0.35,0.105-0.311,0.777-0.918,0.484c0.338-0.868,0.718-1.711,1.145-2.531
		c0.137-0.261,0.515-0.239,0.651,0.042C31.045,46.474,31.411,47.298,31.787,48.116z M30.729,47.166
		c-0.103-0.392-0.15-0.706-0.508-0.944c-0.122,0.341-0.218,0.608-0.337,0.944C30.188,47.166,30.409,47.166,30.729,47.166z"/>
	<path fill-rule="evenodd" clip-rule="evenodd" fill="#5CBCE2" d="M76.636,48.122c-0.587,0.355-0.581-0.288-0.92-0.456
		c-0.332,0-0.726,0-1.076,0c-0.351,0.102-0.317,0.776-0.903,0.476c0.313-0.889,0.716-1.722,1.132-2.548
		c0.105-0.209,0.462-0.194,0.604-0.001c0.04,0.053,0.08,0.107,0.107,0.166C75.933,46.546,76.284,47.332,76.636,48.122z
		 M75.598,47.199c-0.114-0.428-0.148-0.752-0.541-0.929c-0.102,0.293-0.194,0.56-0.31,0.892
		C75.049,47.176,75.267,47.187,75.598,47.199z"/>
	<path fill-rule="evenodd" clip-rule="evenodd" fill="#7E8690" d="M152.479,47.09c0,0.263,0,0.446,0,0.686
		c0.438,0.027,0.834,0.041,1.228,0.08c0.069,0.008,0.132,0.114,0.188,0.181c0.017,0.02-0.002,0.065-0.007,0.146
		c-0.609,0.159-1.232,0.089-1.876,0.05c-0.255-0.448-0.11-0.929-0.131-1.385c-0.021-0.428-0.041-0.863,0.06-1.343
		c0.652-0.116,1.272-0.124,1.882-0.015c0.101,0.216,0.053,0.37-0.153,0.396c-0.3,0.04-0.604,0.027-0.904,0.055
		c-0.089,0.008-0.186,0.066-0.258,0.126c-0.044,0.034-0.068,0.117-0.064,0.178c0.004,0.094,0.039,0.188,0.053,0.25
		c0.355,0.32,0.954-0.124,1.256,0.493c-0.266,0.029-0.459,0.055-0.653,0.07C152.931,47.072,152.765,47.076,152.479,47.09z"/>
	<path fill-rule="evenodd" clip-rule="evenodd" fill="#7E8690" d="M135.354,48.141c-0.536,0.285-0.544-0.26-0.868-0.47
		c-0.337-0.076-0.762-0.057-1.121-0.007c-0.323,0.17-0.315,0.714-0.778,0.529c-0.027-0.056-0.058-0.091-0.051-0.109
		c0.34-0.799,0.669-1.603,1.031-2.393c0.149-0.331,0.556-0.335,0.708-0.012C134.652,46.489,135.067,47.285,135.354,48.141z
		 M133.867,46.224c-0.145,0.343-0.387,0.566-0.279,0.949c0.241,0,0.461,0,0.698,0C134.312,46.786,134.178,46.519,133.867,46.224z"/>
	<path fill-rule="evenodd" clip-rule="evenodd" fill="#5CBCE2" d="M54.98,48.112c0.369-0.818,0.712-1.609,1.087-2.388
		c0.058-0.123,0.246-0.252,0.374-0.254c0.127-0.001,0.316,0.128,0.375,0.249c0.374,0.777,0.719,1.568,1.06,2.324
		c-0.185,0.311-0.408,0.239-0.497,0.058c-0.349-0.7-0.952-0.452-1.483-0.415c-0.114,0.008-0.222,0.218-0.316,0.346
		C55.448,48.212,55.306,48.318,54.98,48.112z M56.875,47.209c-0.113-0.419-0.176-0.697-0.466-0.961
		c-0.187,0.298-0.358,0.527-0.326,0.908C56.298,47.169,56.517,47.184,56.875,47.209z"/>
	<path fill-rule="evenodd" clip-rule="evenodd" fill="#7E8690" d="M91.24,47.768c0.044-0.209,0.074-0.335,0.097-0.463
		c0.034-0.184-0.01-0.445,0.294-0.404c0.206,0.027,0.199,0.237,0.208,0.397c0.036,0.685-0.154,0.909-0.833,0.978
		c-0.37,0.038-0.736,0.025-1.072-0.168c-0.478-0.277-0.717-0.709-0.714-1.245c0.002-0.532,0.227-0.98,0.719-1.238
		c0.578-0.304,1.158-0.304,1.708,0.074c0.057,0.039,0.089,0.197,0.057,0.263c-0.034,0.066-0.166,0.136-0.243,0.126
		c-0.162-0.025-0.313-0.124-0.475-0.154c-0.596-0.112-1.106,0.219-1.209,0.769c-0.1,0.537,0.285,1.037,0.884,1.119
		C90.821,47.842,90.99,47.793,91.24,47.768z"/>
	<path fill-rule="evenodd" clip-rule="evenodd" fill="#7E8690" d="M111.57,46.535c0,0.268,0.025,0.538-0.006,0.804
		c-0.063,0.541-0.376,0.85-0.896,0.931c-0.938,0.147-1.487-0.287-1.525-1.246c-0.019-0.465,0.018-0.934,0.054-1.4
		c0.004-0.057,0.144-0.147,0.221-0.147c0.076,0,0.203,0.084,0.22,0.151c0.045,0.191,0.052,0.395,0.06,0.593
		c0.011,0.336-0.007,0.673,0.023,1.005c0.031,0.348,0.257,0.559,0.576,0.596c0.357,0.043,0.673-0.154,0.744-0.522
		c0.056-0.292,0.04-0.599,0.061-0.897c0.017-0.267,0.035-0.532,0.068-0.794c0.008-0.043,0.104-0.115,0.142-0.105
		c0.084,0.021,0.214,0.078,0.222,0.136c0.043,0.297,0.054,0.597,0.075,0.896C111.596,46.534,111.583,46.534,111.57,46.535z"/>
	<path fill-rule="evenodd" clip-rule="evenodd" fill="#5CBCE2" d="M62.15,46.335c0.196,0.101,0.364,0.204,0.543,0.276
		c0.216,0.087,0.451,0.131,0.665,0.225c0.269,0.118,0.399,0.348,0.401,0.643c0.002,0.292-0.121,0.535-0.384,0.657
		c-0.549,0.25-1.105,0.234-1.637-0.059c-0.061-0.033-0.106-0.183-0.083-0.251c0.022-0.066,0.163-0.158,0.219-0.14
		c0.354,0.119,0.708,0.239,1.076,0.103c0.1-0.037,0.191-0.174,0.226-0.283c0.018-0.059-0.078-0.201-0.151-0.231
		c-0.278-0.113-0.573-0.187-0.854-0.294c-0.394-0.152-0.569-0.399-0.556-0.748c0.013-0.349,0.214-0.62,0.584-0.734
		c0.428-0.132,0.861-0.151,1.261,0.094c0.062,0.038,0.117,0.18,0.092,0.239c-0.029,0.071-0.15,0.153-0.226,0.147
		c-0.198-0.014-0.392-0.099-0.589-0.109C62.495,45.859,62.272,45.933,62.15,46.335z"/>
	<path fill-rule="evenodd" clip-rule="evenodd" fill="#7E8690" d="M159.778,46.005c-0.313-0.059-0.535-0.127-0.761-0.134
		c-0.154-0.003-0.318,0.069-0.468,0.135c-0.152,0.066-0.167,0.33-0.03,0.417c0.111,0.068,0.229,0.133,0.354,0.177
		c0.22,0.079,0.45,0.131,0.666,0.215c0.271,0.102,0.438,0.297,0.457,0.598c0.024,0.338-0.112,0.611-0.414,0.735
		c-0.547,0.224-1.106,0.233-1.627-0.095c-0.052-0.033-0.06-0.169-0.051-0.252c0.005-0.04,0.104-0.107,0.148-0.101
		c0.195,0.031,0.384,0.102,0.58,0.126c0.164,0.021,0.341,0.03,0.495-0.01c0.109-0.03,0.249-0.145,0.272-0.242
		c0.02-0.093-0.072-0.268-0.163-0.313c-0.203-0.106-0.438-0.157-0.659-0.231c-0.525-0.184-0.761-0.446-0.733-0.817
		c0.029-0.416,0.387-0.739,0.902-0.781c0.332-0.027,0.682-0.059,0.954,0.186C159.768,45.675,159.748,45.829,159.778,46.005z"/>
	<path fill-rule="evenodd" clip-rule="evenodd" fill="#7E8690" d="M147.866,45.896c-0.116,0.086-0.222,0.224-0.309,0.214
		c-0.192-0.024-0.371-0.151-0.564-0.187c-0.395-0.072-0.723,0.065-0.957,0.397c-0.235,0.331-0.245,0.687-0.038,1.032
		c0.206,0.347,0.528,0.515,0.927,0.469c0.226-0.025,0.442-0.123,0.666-0.17c0.047-0.011,0.149,0.046,0.159,0.088
		c0.021,0.08,0.027,0.213-0.021,0.253c-0.461,0.38-1.267,0.405-1.777,0.069c-0.493-0.323-0.743-0.916-0.622-1.475
		c0.134-0.62,0.603-1.068,1.235-1.148C147.041,45.379,147.492,45.43,147.866,45.896z"/>
	<path fill-rule="evenodd" clip-rule="evenodd" fill="#5CBCE2" d="M70.091,45.882c-0.095,0.085-0.186,0.229-0.272,0.228
		c-0.158-0.006-0.311-0.105-0.47-0.154c-0.433-0.129-0.795-0.004-1.067,0.345c-0.238,0.308-0.235,0.821-0.001,1.13
		c0.272,0.358,0.642,0.462,1.071,0.358c0.159-0.038,0.31-0.121,0.469-0.143c0.067-0.007,0.148,0.096,0.242,0.16
		c-0.162,0.391-0.484,0.447-0.814,0.479c-0.446,0.041-0.869-0.02-1.223-0.327c-0.573-0.496-0.656-1.397-0.179-1.992
		c0.24-0.3,0.557-0.486,0.936-0.529C69.257,45.381,69.719,45.41,70.091,45.882z"/>
	<path fill-rule="evenodd" clip-rule="evenodd" fill="#7E8690" d="M140.64,48.292c-1.008-0.003-1.633-0.593-1.636-1.421
		c-0.003-0.856,0.688-1.501,1.59-1.439c0.257,0.018,0.516,0.127,0.753,0.238c0.077,0.035,0.106,0.211,0.116,0.324
		c0.003,0.029-0.168,0.112-0.245,0.097c-0.163-0.028-0.313-0.126-0.476-0.159c-0.43-0.089-0.849,0.084-1.043,0.432
		c-0.194,0.352-0.196,0.715,0.03,1.049c0.229,0.338,0.567,0.465,0.968,0.4c0.129-0.021,0.251-0.089,0.377-0.133
		c0.167-0.059,0.371-0.086,0.396,0.126c0.013,0.107-0.152,0.29-0.278,0.348C140.983,48.246,140.743,48.269,140.64,48.292z"/>
	<path fill-rule="evenodd" clip-rule="evenodd" fill="#5CBCE2" d="M85.812,46.426c0.229,0.01,0.442,0.229,0.438,0.454
		c-0.003,0.219-0.238,0.433-0.468,0.423c-0.237-0.008-0.45-0.229-0.438-0.453C85.358,46.624,85.588,46.416,85.812,46.426z"/>
	<path fill-rule="evenodd" clip-rule="evenodd" fill="#7E8690" d="M153.09,45.082c-0.318,0.242-0.465,0.003-0.633-0.138
		c-0.03-0.024-0.03-0.131-0.002-0.167c0.033-0.043,0.138-0.085,0.169-0.063C152.782,44.822,152.928,44.951,153.09,45.082z"/>
</g>
</svg>
