<svg width="256" height="151" viewBox="0 0 256 151" fill="none" xmlns="http://www.w3.org/2000/svg">
<path d="M176.136 107.269C175.601 105.984 131.622 18.8357 130.902 17.6347C128.591 12.0857 124.525 7.21474 118.94 3.94074C105.276 -4.06726 87.707 0.516735 79.699 14.1807C74.206 23.5527 74.639 34.7617 79.861 43.4627C80.396 44.7477 122.49 128.161 123.211 129.362C123.746 130.647 124.375 131.896 125.096 133.097C127.407 138.646 131.473 143.517 137.058 146.791C150.722 154.8 168.291 150.215 176.299 136.551C181.792 127.179 181.358 115.97 176.136 107.269Z" fill="#333333"/>
<path d="M125.349 48.2958C130.162 43.1668 133.116 36.2708 133.116 28.6818C133.116 12.8438 120.277 0.00476074 104.439 0.00476074C94.699 0.00476074 86.099 4.86474 80.916 12.2867C79.97 13.2947 8.561 101.3 7.767 102.437C2.954 107.566 0 114.462 0 122.051C0 137.889 12.839 150.728 28.677 150.728C38.417 150.728 47.017 145.868 52.2 138.446C53.146 137.437 124.555 49.4318 125.349 48.2958Z" fill="black"/>
<path d="M248.229 48.2958C253.042 43.1668 255.996 36.2708 255.996 28.6818C255.996 12.8438 243.157 0.00476074 227.319 0.00476074C217.579 0.00476074 208.98 4.86474 203.796 12.2867C202.85 13.2947 131.441 101.3 130.647 102.437C125.834 107.566 122.88 114.462 122.88 122.051C122.88 137.889 135.719 150.728 151.557 150.728C161.297 150.728 169.897 145.868 175.08 138.446C176.026 137.437 247.435 49.4318 248.229 48.2958Z" fill="black"/>
</svg>


<svg xmlns="http://www.w3.org/2000/svg" fill="none" viewBox="0 0 24 24" stroke-width="1.5" stroke="currentColor" class="size-6">
  <path stroke-linecap="round" stroke-linejoin="round" d="M4.26 10.147a60.438 60.438 0 0 0-.491 6.347A48.62 48.62 0 0 1 12 20.904a48.62 48.62 0 0 1 8.232-4.41 60.46 60.46 0 0 0-.491-6.347m-15.482 0a50.636 50.636 0 0 0-2.658-.813A59.906 59.906 0 0 1 12 3.493a59.903 59.903 0 0 1 10.399 5.84c-.896.248-1.783.52-2.658.814m-15.482 0A50.717 50.717 0 0 1 12 13.489a50.702 50.702 0 0 1 7.74-3.342M6.75 15a.75.75 0 1 0 0-1.5.75.75 0 0 0 0 1.5Zm0 0v-3.675A55.378 55.378 0 0 1 12 8.443m-7.007 11.55A5.981 5.981 0 0 0 6.75 15.75v-1.5" />
</svg>
